<svg id="Capa_1" enable-background="new 0 0 511.998 511.998" height="512" viewBox="0 0 511.998 511.998" width="512" xmlns="http://www.w3.org/2000/svg"><g><path d="m401.375 0h-341.376v120l185.689 10.002 155.687-10.002c33.084 0 60-26.916 60-60s-26.916-60-60-60z" fill="#cbf0ff"/><path d="m119.998 60c0-33.084-26.915-59.999-59.999-60h-.001c-33.07.001-59.977 26.896-59.998 59.962v.076 376.954c0 8.284 6.716 15 15 15h44.999c8.283 0 15-6.716 15-15l-15.001-316.992h.001c33.084-.001 59.999-26.916 59.999-60z" fill="#b1e1ff"/><path d="m401.375 0h-155.687v130.002l155.687-10.002c33.084 0 60-26.916 60-60s-26.916-60-60-60z" fill="#b1e1ff"/><path d="m59.998 120v376.998c0 8.284 6.716 15 15 15h311.377c8.284 0 15-6.716 15-15v-376.998z" fill="#e6ffff"/><path d="m245.688 120v391.998h140.688c8.284 0 15-6.716 15-15v-376.998z" fill="#cbf0ff"/><path d="m316.373 194.993h-141.371c-8.284 0-15-6.716-15-15s6.716-15 15-15h141.371c8.284 0 15 6.716 15 15s-6.716 15-15 15z" fill="#b1e1ff"/><path d="m316.373 194.993c8.284 0 15-6.716 15-15s-6.716-15-15-15h-70.685v30z" fill="#96d2ff"/><path d="m316.373 254.999h-171.375c-8.284 0-15-6.716-15-15s6.716-15 15-15h171.375c8.284 0 15 6.716 15 15s-6.716 15-15 15z" fill="#b1e1ff"/><path d="m316.373 224.999h-70.685v30h70.685c8.284 0 15-6.716 15-15s-6.716-15-15-15z" fill="#96d2ff"/><path d="m297.279 315.005h-152.281c-8.284 0-15-6.716-15-15s6.716-15 15-15h152.281c8.284 0 15 6.716 15 15s-6.715 15-15 15z" fill="#b1e1ff"/><path d="m297.279 315.005c8.284 0 15-6.716 15-15s-6.716-15-15-15h-51.592v30z" fill="#96d2ff"/><path d="m230.686 375.011h-85.688c-8.284 0-15-6.716-15-15s6.716-15 15-15h85.688c8.284 0 15 6.716 15 15s-6.715 15-15 15z" fill="#b1e1ff"/><path d="m230.686 435.017h-85.688c-8.284 0-15-6.716-15-15s6.716-15 15-15h85.688c8.284 0 15 6.716 15 15s-6.715 15-15 15z" fill="#b1e1ff"/><path d="m470.528 297.455-42.428-42.427c-2.812-2.814-6.627-4.394-10.605-4.394s-7.795 1.58-10.606 4.394l-101.949 101.949c-2.813 2.813-4.393 6.627-4.393 10.604l-.005 36.22-5.609 5.608c-5.857 5.857-5.858 15.355-.001 21.214 2.93 2.929 6.769 4.394 10.607 4.394 3.839 0 7.677-1.465 10.607-4.393l5.609-5.609 36.222-.005c3.978-.001 7.792-1.581 10.604-4.393l101.947-101.948c5.859-5.859 5.859-15.356 0-21.214z" fill="#5e638b"/><path d="m498.817 226.739c-8.498-8.499-19.799-13.181-31.819-13.181s-23.321 4.681-31.82 13.181l-28.289 28.289 63.64 63.64 28.289-28.288c8.5-8.5 13.181-19.801 13.181-31.82-.001-12.021-4.682-23.322-13.182-31.821z" fill="#4f5480"/><path d="m449.314 276.24-154.382 154.383c2.93 2.929 6.769 4.394 10.607 4.394 3.839 0 7.677-1.465 10.607-4.393l5.609-5.609 36.222-.005c3.978-.001 7.792-1.581 10.604-4.393l101.947-101.948c5.858-5.857 5.858-15.355 0-21.213z" fill="#4f5480"/><path d="m498.815 226.738-60.108 60.108 31.821 31.821 28.289-28.288c8.5-8.5 13.181-19.801 13.181-31.82 0-12.021-4.681-23.321-13.181-31.82z" fill="#404576"/></g></svg>